<svg width="1862" height="800" viewBox="300 100 1400 780" fill="none" xmlns="http://www.w3.org/2000/svg">
<g opacity="0.2">
<path d="M1861 814.194V-14.2037C1861 -84.6457 1823.62 -149.447 1760.37 -183.274L1033.06 -594.645C972.676 -628.452 895.073 -628.452 834.693 -594.645L101.627 -183.274C41.2468 -149.468 1 -84.6457 1 -14.2037V811.376C1 881.818 38.3782 946.619 101.627 980.447L831.818 1394.65C892.198 1428.45 969.802 1428.45 1030.18 1394.65L1760.37 980.447C1823.64 946.641 1861 881.823 1861 814.194Z" stroke="#4A4A4A" stroke-width="2"/>
<path d="M1822.38 797.208V2.78249C1822.38 -64.7707 1786.56 -126.915 1725.94 -159.355L1028.82 -553.856C970.946 -586.275 896.565 -586.275 838.692 -553.856L136.065 -159.355C78.1915 -126.935 39.6159 -64.7707 39.6159 2.78249V794.506C39.6159 862.059 75.442 924.203 136.065 956.643L835.936 1353.86C893.81 1386.28 968.191 1386.28 1026.06 1353.86L1725.94 956.643C1786.57 924.223 1822.38 862.064 1822.38 797.208Z" stroke="#4A4A4A" stroke-width="2"/>
<path d="M1780.55 778.915V21.0754C1780.55 -43.3668 1746.41 -102.649 1688.63 -133.595L1024.23 -509.928C969.071 -540.855 898.181 -540.855 843.024 -509.928L173.372 -133.595C118.215 -102.668 81.4498 -43.3668 81.4498 21.0754V776.338C81.4498 840.78 115.595 900.062 173.372 931.008L840.398 1309.93C895.555 1340.85 966.445 1340.85 1021.6 1309.93L1688.63 931.008C1746.42 900.081 1780.55 840.784 1780.55 778.915Z" stroke="#4A4A4A" stroke-width="2"/>
<path d="M1735.5 759.316V40.6749C1735.5 -20.4341 1703.16 -76.6499 1648.45 -105.995L1019.28 -462.863C967.052 -492.19 899.921 -492.19 847.689 -462.863L213.549 -105.995C161.317 -76.6682 126.502 -20.4341 126.502 40.6749V756.872C126.502 817.981 158.836 874.197 213.549 903.542L845.202 1262.86C897.435 1292.19 964.565 1292.19 1016.8 1262.86L1648.45 903.542C1703.18 874.215 1735.5 817.985 1735.5 759.316Z" stroke="#4A4A4A" stroke-width="2"/>
<path d="M1690.45 739.717V60.2746C1690.45 2.49887 1659.92 -50.6506 1608.27 -78.3954L1014.34 -415.797C965.033 -443.525 901.662 -443.525 852.355 -415.797L253.727 -78.3954C204.42 -50.668 171.554 2.49887 171.554 60.2746V737.406C171.554 795.182 202.077 848.332 253.727 876.076L850.007 1215.8C899.314 1243.53 962.686 1243.53 1011.99 1215.8L1608.27 876.076C1659.94 848.349 1690.45 795.186 1690.45 739.717Z" stroke="#4A4A4A" stroke-width="2"/>
<path d="M1648.61 721.425V78.5675C1648.61 23.9028 1619.77 -26.3848 1570.97 -52.6356L1009.75 -371.87C963.159 -398.104 903.278 -398.104 856.687 -371.87L291.034 -52.6356C244.443 -26.4012 213.388 23.9028 213.388 78.5675V719.238C213.388 773.903 242.23 824.191 291.034 850.441L854.469 1171.87C901.06 1198.1 960.94 1198.1 1007.53 1171.87L1570.97 850.441C1619.78 824.207 1648.61 773.907 1648.61 721.425Z" stroke="#4A4A4A" stroke-width="2"/>
<path d="M1610 704.439V95.5535C1610 43.7776 1582.71 -3.85256 1536.53 -28.7161L1005.51 -331.08C961.428 -355.928 904.77 -355.928 860.686 -331.08L325.472 -28.7161C281.388 -3.86809 252.003 43.7776 252.003 95.5535V702.368C252.003 754.144 279.293 801.774 325.472 826.637L858.587 1131.08C902.671 1155.93 959.329 1155.93 1003.41 1131.08L1536.53 826.637C1582.72 801.789 1610 754.147 1610 704.439Z" stroke="#4A4A4A" stroke-width="2"/>
<path d="M1571.38 687.453V112.54C1571.38 63.6531 1545.64 18.6804 1502.09 -4.79588L1001.27 -290.29C959.698 -313.752 906.261 -313.752 864.685 -290.29L359.909 -4.79588C318.333 18.6658 290.619 63.6531 290.619 112.54V685.498C290.619 734.385 316.357 779.358 359.909 802.834L862.705 1090.29C904.282 1113.75 957.718 1113.75 999.295 1090.29L1502.09 802.834C1545.65 779.372 1571.38 734.389 1571.38 687.453Z" stroke="#4A4A4A" stroke-width="2"/>
<path d="M1532.76 670.467V129.526C1532.76 83.528 1508.58 41.2128 1467.65 19.1238L997.037 -249.5C957.967 -271.575 907.753 -271.575 868.684 -249.5L394.347 19.1238C355.277 41.199 329.235 83.528 329.235 129.526V668.627C329.235 714.626 353.421 756.941 394.347 779.03L866.823 1049.5C905.893 1071.58 956.107 1071.58 995.177 1049.5L1467.65 779.03C1508.59 756.955 1532.76 714.629 1532.76 670.467Z" stroke="#4A4A4A" stroke-width="2"/>
<path d="M1494.15 653.481V146.513C1494.15 103.403 1471.52 63.7453 1433.22 43.0435L992.799 -208.71C956.237 -229.399 909.245 -229.399 872.683 -208.71L428.785 43.0435C392.222 63.7324 367.851 103.403 367.851 146.513V651.757C367.851 694.866 390.485 734.524 428.785 755.226L870.942 1008.71C907.504 1029.4 954.496 1029.4 991.058 1008.71L1433.22 755.226C1471.53 734.537 1494.15 694.87 1494.15 653.481Z" stroke="#4A4A4A" stroke-width="2"/>
<path d="M1452.31 635.189V164.806C1452.31 124.807 1431.36 88.0112 1395.91 68.8033L988.208 -164.783C954.362 -183.979 910.861 -183.979 877.015 -164.783L466.092 68.8033C432.246 87.9992 409.685 124.807 409.685 164.806V633.589C409.685 673.588 430.638 710.383 466.092 729.591L875.403 964.783C909.25 983.979 952.75 983.979 986.597 964.783L1395.91 729.591C1431.37 710.395 1452.31 673.59 1452.31 635.189Z" stroke="#4A4A4A" stroke-width="2"/>
<path d="M1413.7 618.203V181.792C1413.7 144.682 1394.3 110.544 1361.47 92.723L983.971 -123.993C952.631 -141.802 912.353 -141.802 881.014 -123.993L500.53 92.723C469.19 110.533 448.301 144.682 448.301 181.792V616.719C448.301 653.828 467.701 687.967 500.53 705.787L879.521 923.993C910.861 941.803 951.139 941.803 982.479 923.993L1361.47 705.787C1394.31 687.978 1413.7 653.831 1413.7 618.203Z" stroke="#4A4A4A" stroke-width="2"/>
<path d="M1368.65 597.297V202.698C1368.65 169.143 1351.06 138.276 1321.29 122.162L979.027 -73.7903C950.613 -89.8935 914.093 -89.8935 885.679 -73.7903L540.707 122.162C512.293 138.266 493.353 169.143 493.353 202.698V595.955C493.353 629.509 510.943 660.377 540.707 676.49L884.326 873.79C912.741 889.893 949.26 889.893 977.674 873.79L1321.29 676.49C1351.07 660.387 1368.65 629.512 1368.65 597.297Z" stroke="#4A4A4A" stroke-width="2"/>
<path d="M1326.81 577.698V222.297C1326.81 192.076 1310.9 164.275 1283.99 149.762L974.436 -26.7249C948.738 -41.2284 915.709 -41.2284 890.011 -26.7249L578.014 149.762C552.316 164.266 535.187 192.076 535.187 222.297V576.489C535.187 606.71 551.095 634.512 578.014 649.024L888.788 826.725C914.486 841.228 947.514 841.228 973.212 826.725L1283.99 649.024C1310.91 634.521 1326.81 606.713 1326.81 577.698Z" stroke="#4A4A4A" stroke-width="2"/>
<path d="M1281.76 558.099V241.897C1281.76 215.009 1267.66 190.274 1243.81 177.362L969.492 20.3405C946.719 7.43662 917.45 7.43662 894.676 20.3405L618.192 177.362C595.418 190.266 580.239 215.009 580.239 241.897V557.024C580.239 583.912 594.336 608.647 618.192 621.559L893.592 779.66C916.365 792.564 945.634 792.564 968.408 779.66L1243.81 621.559C1267.67 608.655 1281.76 583.914 1281.76 558.099Z" stroke="#4A4A4A" stroke-width="2"/>
<path d="M1233.49 535.887V264.11C1233.49 241 1221.33 219.74 1200.76 208.642L964.195 73.681C944.556 62.5901 919.314 62.5901 899.675 73.681L661.239 208.642C641.599 219.733 628.509 241 628.509 264.11V534.963C628.509 558.073 640.666 579.333 661.239 590.431L898.74 726.319C918.379 737.41 943.621 737.41 963.26 726.319L1200.76 590.431C1221.34 579.34 1233.49 558.074 1233.49 535.887Z" stroke="#4A4A4A" stroke-width="2"/>
<path d="M1178 511.264V288.734C1178 269.811 1168.07 252.403 1151.27 243.316L958.105 132.811C942.069 123.73 921.458 123.73 905.422 132.811L710.726 243.316C694.689 252.398 684 269.811 684 288.734V510.507C684 529.43 693.927 546.837 710.726 555.924L904.658 667.189C920.695 676.27 941.305 676.27 957.342 667.189L1151.27 555.924C1168.08 546.843 1178 529.431 1178 511.264Z" stroke="#4A4A4A" stroke-width="2"/>
<path d="M1117 484.057V315.941C1117 301.645 1109.52 288.495 1096.87 281.63L951.411 198.145C939.335 191.285 923.815 191.285 911.739 198.145L765.125 281.63C753.049 288.49 745 301.645 745 315.941V483.485C745 497.781 752.476 510.932 765.125 517.797L911.164 601.855C923.24 608.715 938.76 608.715 950.836 601.855L1096.87 517.797C1109.53 510.936 1117 497.782 1117 484.057Z" stroke="#4A4A4A" stroke-width="2"/>
<path d="M1062 459.287V340.712C1062 330.629 1056.73 321.354 1047.83 316.512L945.376 257.629C936.871 252.79 925.939 252.79 917.434 257.629L814.174 316.512C805.669 321.351 800 330.629 800 340.712V458.883C800 468.966 805.265 478.242 814.174 483.084L917.029 542.371C925.534 547.21 936.466 547.21 944.971 542.371L1047.83 483.084C1056.74 478.245 1062 468.967 1062 459.287Z" stroke="#4A4A4A" stroke-width="2"/>
<path d="M1007 434.11V365.889C1007 360.088 1003.95 354.751 998.777 351.966L939.34 318.088C934.406 315.304 928.064 315.304 923.13 318.088L863.223 351.966C858.289 354.75 855 360.088 855 365.889V433.878C855 439.679 858.055 445.016 863.223 447.801L922.895 481.912C927.829 484.696 934.171 484.696 939.105 481.912L998.777 447.801C1003.95 445.017 1007 439.68 1007 434.11Z" stroke="#4A4A4A" stroke-width="2"/>
</g>
</svg>
